# xmcd CD database file
#
# Track frame offsets:
#	150
#	16219
#	61708
#	80386
#	88510
#	124710
#	178622
#	187757
#	229077
#	268534
#
# Disc length: 4032 seconds
#
# Revision: 0
# Processed by: cddbd v1.5.2PL0 Copyright (c) Steve Scherf et al.
# Submitted via: CDex 1.51
#
DISCID=6d0fbe0a
DTITLE=Judith Cornell - Mandala
DYEAR=1900
DGENRE=New Age
TTITLE0=Judith Cornell - Exercise: Creating a Scale of Light
TTITLE1=Judith Cornell - Meditation: Remembering Who You Are
TTITLE2=Judith Cornell - Meditation: Blessing the Materials
TTITLE3=Judith Cornell - Exercise: Drawing the Outline of Your Hands
TTITLE4=Judith Cornell - Meditation: Bringing Prana through the Hands
TTITLE5=Judith Cornell - Meditation: Accessing a Healing Symbol
TTITLE6=Judith Cornell - Exercise: Creating a Luminous Mandala
TTITLE7=Judith Cornell - Meditation: Accessing Healing Colors
TTITLE8=Judith Cornell - Meditation: Journeys into the Divine Realities of Nature
TTITLE9=Judith Cornell - Exercise: Symbolic Drawing of Birds and Animals
EXTD=
EXTT0=
EXTT1=
EXTT2=
EXTT3=
EXTT4=
EXTT5=
EXTT6=
EXTT7=
EXTT8=
EXTT9=
PLAYORDER=
